# xmcd
#
# Track frame offsets:
#	150
#	12629
#	24796
#	34842
#	42675
#	53152
#	63686
#	75475
#	87874
#	97324
#
# Disc length: 1413 seconds
# Revision: 0
# Processed by: cddbd v1.5.2PL0 Copyright (c) Steve Scherf et al.
# Submitted via: dBpowerAMP V12.0
#
DISCID=8105830a
DTITLE=Various Artist - Men of country CD2
DYEAR=2005
DGENRE=Vocal
TTITLE0=T.G. Sheppard - Trying to beat the morning home
TTITLE1=Bobby Helms - Fraulein
TTITLE2=David Houston - You mean the world to me
TTITLE3=Don Gibson - Blue blue day
TTITLE4=Porter Wagoner - Sorrow on the rocks
TTITLE5=Mickey Gilley - A new way to live
TTITLE6=Willie Nelson - Is there something on your mind
TTITLE7=Kenny Rogers - Reuben James
TTITLE8=Conway Twitty - I wonder if you told her (about me)
TTITLE9=Waylon Jennings - Love's gonna live here
EXTD=
EXTT0=
EXTT1=
EXTT2=
EXTT3=
EXTT4=
EXTT5=
EXTT6=
EXTT7=
EXTT8=
EXTT9=
PLAYORDER=
